<svg width="32" height="32" viewBox="0 0 32 32" fill="none" xmlns="http://www.w3.org/2000/svg">
  <!-- Hair -->
  <path d="M8 14C8 8 11 4 16 4C21 4 24 8 24 14" stroke="#907aa9" stroke-width="2" stroke-linecap="round" fill="none"/>
  <path d="M6 16C6 16 7 10 8 14" stroke="#907aa9" stroke-width="1.5" stroke-linecap="round" fill="none"/>
  <path d="M26 16C26 16 25 10 24 14" stroke="#907aa9" stroke-width="1.5" stroke-linecap="round" fill="none"/>
  <!-- Face -->
  <circle cx="16" cy="16" r="7" stroke="#907aa9" stroke-width="2" fill="none"/>
  <!-- Eyes -->
  <circle cx="13.5" cy="15" r="0.8" fill="#907aa9"/>
  <circle cx="18.5" cy="15" r="0.8" fill="#907aa9"/>
  <!-- Smile -->
  <path d="M13 18.5C13.8 19.5 15 20 16 20C17 20 18.2 19.5 19 18.5" stroke="#907aa9" stroke-width="1.2" stroke-linecap="round" fill="none"/>
  <!-- Body -->
  <path d="M11 23V28" stroke="#907aa9" stroke-width="2" stroke-linecap="round"/>
  <path d="M21 23V28" stroke="#907aa9" stroke-width="2" stroke-linecap="round"/>
  <path d="M10 23H22" stroke="#907aa9" stroke-width="2" stroke-linecap="round"/>
  <!-- Laptop -->
  <rect x="6" y="26" width="20" height="2" rx="1" stroke="#907aa9" stroke-width="1.5" fill="none"/>
  <path d="M10 23L8 26" stroke="#907aa9" stroke-width="1.5" stroke-linecap="round"/>
  <path d="M22 23L24 26" stroke="#907aa9" stroke-width="1.5" stroke-linecap="round"/>
</svg>
